<svg id="SvgjsSvg1304" width="288" height="288" xmlns="http://www.w3.org/2000/svg" version="1.1" xmlns:xlink="http://www.w3.org/1999/xlink" xmlns:svgjs="http://svgjs.com/svgjs"><rect id="SvgjsRect1313" width="288" height="288" rx="0" ry="0" transform="matrix(1,0,0,1,0,0)" fill="#ffffff"></rect><defs id="SvgjsDefs1305"></defs><g id="SvgjsG1306" transform="matrix(0.72,0,0,0.72,40.31999893188477,40.32000000000001)"><svg xmlns="http://www.w3.org/2000/svg" viewBox="0 0 361.39 512" width="288" height="288"><g data-name="Layer 2" fill="#000000" class="color000 svgShape"><g data-name=" Batch file" fill="#000000" class="color000 svgShape"><path fill="#cb2f29" d="M352.59,93.94,267.76,8.81A30.28,30.28,0,0,0,246.5,0H30.08A30.11,30.11,0,0,0,0,30.08V481.92A30.12,30.12,0,0,0,30.08,512H331.31a30.12,30.12,0,0,0,30.08-30.08V115.2A30.28,30.28,0,0,0,352.59,93.94Z" class="colorcb2f29 svgShape"></path><path fill="#ffffff" d="M201.56 238.45c0-.09-.08-.18-.11-.27A11.56 11.56 0 00190.73 231h0A11.54 11.54 0 00180 238.2l-.09.23-26.3 69a10 10 0 0018.69 7.12l4.1-10.76h28.44l4.05 10.73a10 10 0 0018.71-7.06zM184 283.83l6.67-17.51 6.61 17.51zM129.78 270.36A26.09 26.09 0 00107.29 231H87a10 10 0 00-10 10v70a10 10 0 0010 10h0s18.69-.08 23.85-.08a28.83 28.83 0 0018.93-50.59zM107.29 251a6.12 6.12 0 110 12.23l-7.26 0H97V251zM110.85 301L97 301V283.26h13.9a8.85 8.85 0 010 17.7zM274.44 231H235.76a10 10 0 000 20H245v60a10 10 0 1020 0V251h9.42a10 10 0 100-20z" class="colorfff svgShape"></path></g></g></svg></g></svg>