<svg id="SvgjsSvg1162" width="288" height="288" xmlns="http://www.w3.org/2000/svg" version="1.1" xmlns:xlink="http://www.w3.org/1999/xlink" xmlns:svgjs="http://svgjs.com/svgjs"><rect id="SvgjsRect1171" width="288" height="288" rx="0" ry="0" transform="matrix(1,0,0,1,0,0)" fill="#ffffff"></rect><defs id="SvgjsDefs1163"></defs><g id="SvgjsG1164" transform="matrix(0.82,0,0,0.82,25.92,25.92)"><svg xmlns="http://www.w3.org/2000/svg" viewBox="0 0 64 64" width="288" height="288"><path fill="#bf5900" d="M11 3h46v54H11z" class="colorbf5900 svgShape"></path><path fill="#f7fcff" d="M53 17v44H7V7h36l10 10z" class="colorf7fcff svgShape"></path><path fill="#ffaa00" d="M7 7v18h46v-8L43 7H7z" class="colorfa0 svgShape"></path><path fill="#ff7600" d="M53 17h-8a2 2 0 0 1-2-2V7Z" class="colorff7600 svgShape"></path><path fill="#bf5900" d="M25 22a1 1 0 0 0 1-1v-9h2a1 1 0 0 0 0-2h-6a1 1 0 0 0 0 2h2v9a1 1 0 0 0 1 1zm-13 0a1 1 0 0 0 1-1v-4h4v4a1 1 0 0 0 2 0V11a1 1 0 0 0-2 0v4h-4v-4a1 1 0 0 0-2 0v10a1 1 0 0 0 1 1zm3.2 21.61 6.1 8a1 1 0 0 0 .79.39 1.06 1.06 0 0 0 .61-.2 1 1 0 0 0 .19-1.41L17.26 43l5.63-7.39a1 1 0 1 0-1.59-1.22l-6.1 8a1 1 0 0 0 0 1.22zm29.59-1.22-6.1-8a1 1 0 0 0-1.41-.18 1 1 0 0 0-.18 1.4L42.74 43l-5.64 7.39a1 1 0 0 0 .18 1.4 1 1 0 0 0 .61.21 1 1 0 0 0 .8-.39l6.1-8a1 1 0 0 0 0-1.22zM28 52h.22a1 1 0 0 0 1-.79l3.5-16a1 1 0 0 0-2-.42l-3.5 16A1 1 0 0 0 28 52zm4-30a1 1 0 0 0 1-1v-6.39l1.14 1.9a1 1 0 0 0 1.72 0l1.14-1.9V21a1 1 0 0 0 2 0V11a1 1 0 0 0-1.86-.51L35 14.06l-2.14-3.57A1 1 0 0 0 31 11v10a1 1 0 0 0 1 1z" class="colorbf5900 svgShape"></path></svg></g></svg>