<svg version="1.1" id="Layer_1" xmlns="http://www.w3.org/2000/svg" xmlns:xlink="http://www.w3.org/1999/xlink" viewBox="0 0 512 512" xml:space="preserve" fill="#000000"><g id="SVGRepo_bgCarrier" stroke-width="0"></g><g id="SVGRepo_tracerCarrier" stroke-linecap="round" stroke-linejoin="round"></g><g id="SVGRepo_iconCarrier"> <rect x="4" y="109.852" width="504" height="358.496"></rect> <g> <polygon style="fill:#333333;" points="369.968,431.172 142.032,431.172 104.664,459.588 407.336,459.588 "></polygon> <polygon style="fill:#333333;" points="113.32,431.172 47.632,431.172 10.256,459.588 76.072,459.588 "></polygon> <polygon style="fill:#333333;" points="464.368,431.172 398.68,431.172 435.928,459.588 501.744,459.588 "></polygon> <polygon style="fill:#333333;" points="369.968,147.788 142.032,147.788 104.664,119.372 407.336,119.372 "></polygon> <polygon style="fill:#333333;" points="113.32,147.788 47.632,147.788 10.256,119.372 76.072,119.372 "></polygon> <polygon style="fill:#333333;" points="464.368,147.788 398.68,147.788 435.928,119.372 501.744,119.372 "></polygon> </g> <path style="fill:#E21B1B;" d="M504,113.852v350.496H8V113.852H504 M512,105.852H0v366.496h512V105.852z"></path> <path style="fill:#999999;" d="M0,119.372V55.636c0.024-8.824,7.176-15.976,16-16h479.96c8.824,0.024,15.976,7.176,16,16v63.728H0 V119.372z"></path> <polygon style="fill:#FFFFFF;" points="471.624,101.508 171.536,101.508 200.24,57.508 471.624,57.508 "></polygon> <g> <circle style="fill:#E2E2E2;" cx="53.904" cy="78.908" r="13.608"></circle> <circle style="fill:#E2E2E2;" cx="89.976" cy="78.908" r="13.608"></circle> <circle style="fill:#E2E2E2;" cx="126.056" cy="78.908" r="13.608"></circle> </g> <path d="M215.624,71.244l1.912,8.312c0.416,1.952,0.8,3.944,1.168,5.936h0.08c0.376-1.992,0.976-4,1.504-5.896l2.4-8.352h3.76 l2.296,8.128c0.56,2.144,1.048,4.136,1.464,6.128h0.08c0.296-1.992,0.712-4,1.2-6.128l2.032-8.128h4.544l-5.752,18.312H228 l-2.176-7.448c-0.568-1.928-1.032-3.888-1.392-5.864h-0.08c-0.336,1.984-0.8,3.944-1.392,5.864l-2.328,7.448h-4.328l-5.424-18.312 H215.624z"></path> <path d="M244.384,71.244l1.912,8.312c0.416,1.952,0.8,3.944,1.168,5.936h0.08c0.376-1.992,0.976-4,1.504-5.896l2.4-8.352h3.76 l2.296,8.128c0.56,2.144,1.048,4.136,1.464,6.128h0.08c0.296-1.992,0.712-4,1.2-6.128l2.032-8.128h4.544l-5.752,18.312h-4.288 l-2.176-7.448c-0.568-1.928-1.032-3.888-1.392-5.864h-0.08c-0.336,1.984-0.8,3.944-1.392,5.864l-2.328,7.448h-4.328l-5.416-18.312 H244.384z"></path> <path d="M273.152,71.244l1.912,8.312c0.416,1.952,0.8,3.944,1.168,5.936h0.08c0.376-1.992,0.976-4,1.504-5.896l2.4-8.352h3.76 l2.296,8.128c0.56,2.144,1.048,4.136,1.464,6.128h0.08c0.296-1.992,0.712-4,1.2-6.128l2.032-8.128h4.544l-5.752,18.312h-4.32 l-2.176-7.448c-0.568-1.928-1.032-3.888-1.392-5.864h-0.08c-0.336,1.984-0.8,3.944-1.392,5.864l-2.328,7.448h-4.328l-5.416-18.312 H273.152z"></path> <path d="M296.312,86.996c-0.104-1.544,1.064-2.888,2.608-2.992c0.096-0.008,0.184-0.008,0.28-0.008c1.64,0,2.968,1.328,2.968,2.968 s-1.328,2.96-2.968,2.968c-1.552,0.04-2.848-1.184-2.888-2.744C296.312,87.124,296.312,87.06,296.312,86.996z"></path> <polygon style="fill:#E21B1B;" points="342.688,464.212 169.312,464.212 193.312,445.964 318.688,445.964 "></polygon> <rect y="459.596" width="512" height="12.768"></rect> <polygon style="fill:#E21B1B;" points="501.744,459.588 435.928,459.588 407.336,459.588 104.664,459.588 76.072,459.588 10.256,459.588 0,459.588 0,472.356 512,472.356 512,459.588 "></polygon> <polygon points="440.352,92.508 437.496,89.708 447.384,79.548 436.904,69.324 439.696,66.468 453.04,79.468 "></polygon> <rect x="421.616" y="77.508" width="26.416" height="4"></rect> <g> <path style="fill:#E21B1B;" d="M153.152,267.132h-18.4l19.648-93.84h18.4l-7.04,33.416c3.512-2.872,7.416-5.224,11.584-7.008 c3.664-1.448,7.576-2.176,11.52-2.152c4.816-0.256,9.528,1.456,13.056,4.736c3.256,3.296,4.992,7.792,4.8,12.424 c-0.208,4.272-0.808,8.512-1.8,12.672l-8.32,39.752h-18.4l8.504-40.512c0.656-2.784,1.104-5.608,1.344-8.456 c0.096-2.032-0.672-4.008-2.112-5.44c-1.568-1.424-3.64-2.168-5.76-2.048c-3.208,0.056-6.304,1.184-8.8,3.2 c-3.6,2.736-6.48,6.304-8.384,10.4c-1.88,5.176-3.296,10.512-4.224,15.936L153.152,267.132z"></path> <path style="fill:#E21B1B;" d="M219.2,212.796l2.816-13.6h8.96l2.24-10.88l21.064-12.672l-4.928,23.552h11.2l-2.816,13.6h-11.264 l-5.952,28.488c-0.68,2.904-1.216,5.84-1.6,8.8c-0.064,1.24,0.424,2.456,1.344,3.296c1.44,0.936,3.152,1.352,4.864,1.176 c0.808,0,2.84-0.152,6.08-0.448l-2.872,13.6c-3.208,0.648-6.464,0.968-9.736,0.96c-5.008,0.424-10.008-0.896-14.144-3.744 c-2.992-2.6-4.624-6.44-4.424-10.4c0.432-4.872,1.24-9.712,2.4-14.464l5.704-27.336L219.2,212.796z"></path> <path style="fill:#E21B1B;" d="M271.88,199.156h17.28l-1.728,8.256c5.48-6,13.128-9.552,21.248-9.856 c4.192-0.264,8.352,0.864,11.84,3.2c2.792,2.176,4.688,5.312,5.312,8.8c2.616-3.64,6.088-6.584,10.112-8.568 c4.216-2.264,8.912-3.448,13.696-3.464c4.632-0.28,9.192,1.288,12.68,4.352c3.072,3.024,4.72,7.208,4.536,11.52 c-0.24,4.104-0.84,8.176-1.792,12.168L356.36,267.1h-18.4l8.752-41.504c1.064-5.208,1.6-8.152,1.6-8.8 c0.088-1.656-0.528-3.272-1.696-4.448c-1.424-1.176-3.248-1.752-5.088-1.6c-5.016,0.232-9.584,2.928-12.224,7.2 c-3.432,5.624-5.696,11.88-6.656,18.4l-6.464,30.848h-18.4l8.616-41.16c0.728-3.032,1.224-6.112,1.472-9.216 c0.056-1.664-0.608-3.272-1.824-4.416c-1.384-1.216-3.184-1.832-5.024-1.728c-2.192,0.048-4.328,0.672-6.208,1.792 c-2.184,1.24-4.088,2.92-5.6,4.928c-1.792,2.456-3.184,5.176-4.128,8.064c-0.536,1.544-1.368,5.008-2.496,10.4l-6.528,31.2h-18.4 L271.88,199.156z"></path> <path style="fill:#E21B1B;" d="M374.672,267.132l19.656-93.832h18.304l-19.584,93.832H374.672z"></path> </g> <g> <path style="fill:#FFFFFF;" d="M152.752,344.356l78.4-36.44v17.32l-59.28,25.96v0.328l59.328,26v17.32l-78.4-36.44L152.752,344.356 z"></path> <path style="fill:#FFFFFF;" d="M243.296,401.38l34.968-118.472h16.504L259.8,401.38L243.296,401.38L243.296,401.38z"></path> <path style="fill:#FFFFFF;" d="M382.68,358.892l-78.4,35.952v-17.32l60.624-25.976v-0.352L304.28,325.22v-17.304l78.4,35.952 V358.892z"></path> </g> </g></svg>