<svg id="SvgjsSvg1277" width="288" height="288" xmlns="http://www.w3.org/2000/svg" version="1.1" xmlns:xlink="http://www.w3.org/1999/xlink" xmlns:svgjs="http://svgjs.com/svgjs"><rect id="SvgjsRect1286" width="288" height="288" rx="0" ry="0" transform="matrix(0.9999999999999999,0,0,0.9999999999999999,2.842170943040401e-14,2.842170943040401e-14)" fill="#ffffff"></rect><defs id="SvgjsDefs1278"></defs><g id="SvgjsG1279" transform="matrix(0.7,0,0,0.7,43.11562500000001,43.03125)"><svg xmlns="http://www.w3.org/2000/svg" viewBox="0 0 512 512" width="288" height="288"><path fill="#c8c6c6" d="M386 25H134v460h347V120.604z" class="colorC8C6C6 svgShape"></path><path fill="#e1e0e0" d="M387 25v95h94z" class="colorE1E0E0 svgShape"></path><path fill="#7f7f7f" d="m183.813 331.611 87.21-59.884v25.992l-63.954 41.791v.509l63.954 41.536v25.737l-87.21-59.883v-15.798zM281.2 417.486l42.515-183.982h15.625l-42.696 183.982H281.2zM437.451 350.723l-87.209 56.57v-25.228l69.768-42.3v-.51l-69.768-42.301v-25.228l87.209 56.57v22.427z" class="color7F7F7F svgShape"></path><path fill="#2e372e" d="M30 48h326v108H30z" class="color2E372E svgShape"></path><path fill="#84e403" d="m144.706 135.471-5.459-12.458c-2.237-4.799-3.669-8.373-5.37-12.355h-.179c-1.253 3.982-2.774 7.556-4.654 12.355l-5.012 12.458h-15.571l17.451-34.82-16.825-34.003h15.662l5.28 12.56a230.598 230.598 0 0 1 4.564 11.437h.179c1.432-4.391 2.595-7.454 4.117-11.437l5.101-12.56h15.572l-17.003 33.595 17.898 35.229h-15.751zM217.02 109.126c-.269-8.271-.537-18.278-.537-28.285h-.269c-1.879 8.782-4.385 18.584-6.712 26.651l-7.338 26.855h-10.649l-6.444-26.651c-1.969-8.067-4.027-17.87-5.459-26.855h-.179c-.358 9.292-.626 19.912-1.074 28.489l-1.074 26.141h-12.619l3.848-68.823h18.167l5.906 22.975c1.879 7.965 3.759 16.542 5.101 24.609h.269c1.7-7.965 3.759-17.053 5.728-24.711l6.443-22.873h17.809l3.312 68.823h-13.334l-.895-26.345zM239.935 66.647h13.692V122.4h23.984v13.07h-37.676V66.647z" class="color84E403 svgShape"></path></svg></g></svg>